# xmcd
#
# Track frame offsets:
#	150
#	18153
#	32115
#	46203
#	64858
#	67335
#	71393
#	86175
#	99716
#	123058
#	134424
#	141716
#	153631
#	166016
#	176827
#	187522
#	201892
#	215497
#
# Disc length: 3137 seconds
# Revision: 0
# Processed by: cddbd v1.5.2PL0 Copyright (c) Steve Scherf et al.
# Submitted via: dBpowerAMP V12.0
#
DISCID=090c3f12
DTITLE=Doc Watson and David Holt - Legacy [CD3 - The Legacy Concert)
DYEAR=2002
DGENRE=Folk
TTITLE0=Whiskey Before Breakfast - Ragtime Annie
TTITLE1=Shady Grove
TTITLE2=Whoop 'Em Up Cindy
TTITLE3=Otto Wood
TTITLE4=Interview: Dad Taught Me to Play Harmonica
TTITLE5=Old Molly Hare
TTITLE6=Home Sweet Home
TTITLE7=Railroad Bill
TTITLE8=Train That Carried My Girl From Town
TTITLE9=Walk On
TTITLE10=Interview: Bantar Vs. Gitjo
TTITLE11=Don't Get Weary
TTITLE12=Black-Eyed Susie
TTITLE13=The Telephone Girl
TTITLE14=Stand By Me
TTITLE15=Just to Ease My Worried Mind
TTITLE16=Raincrow Bill - Hambone Rhythm
TTITLE17=I Got the Blues and I Can't Be Satisfied
EXTD=
EXTT0=
EXTT1=
EXTT2=
EXTT3=
EXTT4=
EXTT5=
EXTT6=
EXTT7=
EXTT8=
EXTT9=
EXTT10=
EXTT11=
EXTT12=
EXTT13=
EXTT14=
EXTT15=
EXTT16=
EXTT17=
PLAYORDER=
